<?xml version="1.0" encoding="UTF-8" standalone="no"?>
<!-- Uploaded to: SVG Repo, www.svgrepo.com, Transformed by: SVG Repo Mixer Tools -->

<svg
   width="189.38644"
   height="229.74539"
   viewBox="0 -182 121.20732 147.03705"
   version="1.1"
   preserveAspectRatio="xMidYMid"
   fill="#000000"
   data-darkreader-inline-fill=""
   id="svg56"
   sodipodi:docname=".directory.svg"
   inkscape:version="1.4 (e7c3feb100, 2024-10-09)"
   xml:space="preserve"
   xmlns:inkscape="http://www.inkscape.org/namespaces/inkscape"
   xmlns:sodipodi="http://sodipodi.sourceforge.net/DTD/sodipodi-0.dtd"
   xmlns="http://www.w3.org/2000/svg"
   xmlns:svg="http://www.w3.org/2000/svg"><defs
     id="defs60" /><sodipodi:namedview
     id="namedview58"
     pagecolor="#505050"
     bordercolor="#eeeeee"
     borderopacity="1"
     inkscape:showpageshadow="0"
     inkscape:pageopacity="0"
     inkscape:pagecheckerboard="0"
     inkscape:deskcolor="#505050"
     showgrid="false"
     inkscape:zoom="1.1225"
     inkscape:cx="234.74388"
     inkscape:cy="226.72606"
     inkscape:window-width="1609"
     inkscape:window-height="936"
     inkscape:window-x="482"
     inkscape:window-y="253"
     inkscape:window-maximized="0"
     inkscape:current-layer="g29" /><g
     id="SVGRepo_bgCarrier"
     stroke-width="0"
     transform="translate(-0.01880379,-182.57299)" /><g
     id="SVGRepo_tracerCarrier"
     stroke-linecap="round"
     stroke-linejoin="round"
     transform="translate(-0.01880379,-182.57299)" /><g
     id="SVGRepo_iconCarrier"
     transform="translate(-0.01880379,-182.57299)"><defs
       id="defs19"><linearGradient
         x1="33.963509"
         y1="0.26445553"
         x2="33.963509"
         y2="68.109993"
         id="linearGradient-1"
         gradientTransform="matrix(0.37582284,0,0,1.7642697,0.00349223,0.10641452)"
         gradientUnits="userSpaceOnUse"><stop
           stop-color="#16B0ED"
           stop-opacity="0.800235524"
           offset="0"
           data-darkreader-inline-stopcolor=""
           style="stop-color:#1da3ee;stop-opacity:1;"
           id="stop4" /><stop
           stop-color="#624794"
           stop-opacity="0.83700023"
           offset="0.76602566"
           data-darkreader-inline-stopcolor=""
           style="stop-color:#4da298;stop-opacity:0.98987341;"
           id="stop6" /></linearGradient><linearGradient
         x1="225.71561"
         y1="0.27513564"
         x2="225.71561"
         y2="68.810188"
         id="linearGradient-2"
         gradientTransform="matrix(-0.37968645,0,0,1.7463168,171.40581,0.10641452)"
         gradientUnits="userSpaceOnUse"><stop
           stop-color="#db5800"
           offset="0"
           data-darkreader-inline-stopcolor=""
           style="stop-color:#00dbcc;stop-opacity:1;"
           id="stop9" /><stop
           stop-color="#1e7b75"
           offset="100%"
           data-darkreader-inline-stopcolor=""
           style="--darkreader-inline-stopcolor: var(--darkreader-background-1e7b75, #40746a);"
           id="stop11" /></linearGradient><linearGradient
         x1="71.974312"
         y1="0.50365144"
         x2="71.974312"
         y2="124.29329"
         id="linearGradient-3"
         gradientTransform="matrix(0.68565536,0,0,0.96703512,0.00349223,0.10641452)"
         gradientUnits="userSpaceOnUse"><stop
           stop-color="#494dc5"
           stop-opacity="0.8"
           offset="0"
           data-darkreader-inline-stopcolor=""
           style="stop-color:#2946b7;stop-opacity:0.81645566;"
           id="stop14" /><stop
           stop-color="#404d91"
           stop-opacity="0.84"
           offset="1"
           data-darkreader-inline-stopcolor=""
           style="stop-color:#2376bb;stop-opacity:0.75949365;"
           id="stop16" /></linearGradient></defs><g
       id="g29"><path
         d="M 0.01880379,26.316304 25.516707,0.57298536 25.516706,120.2708 0.01880379,94.824817 Z"
         fill="url(#linearGradient-1)"
         id="path21"
         style="fill:url(#linearGradient-1);stroke-width:0.81428" /><path
         d="M 98.540925,26.559352 72.69374,0.58688852 73.217664,120.2708 98.715572,94.824817 Z"
         fill="url(#linearGradient-2)"
         id="path23"
         style="fill:url(#linearGradient-2);stroke-width:0.81428" /><path
         d="M 25.499704,0.59346315 91.791583,101.75239 73.241113,120.3024 6.914547,19.36738 Z"
         fill="url(#linearGradient-3)"
         id="path25"
         style="fill:url(#linearGradient-3);stroke-width:0.81428" /><path
         d="M 25.522517,47.513671 25.487258,51.498027 5.0193337,21.280395 6.914547,19.34975 Z"
         fill-opacity="0.13"
         fill="#000000"
         data-darkreader-inline-fill=""
         id="path27"
         style="stroke-width:0.81428" /><g
         id="g2"
         style="fill:#d40000;fill-opacity:1"
         transform="matrix(0.08998508,0,0,0.08998508,78.215048,101.37391)">
	<path
   class="st0"
   d="m 186.521,265.189 v 27.578 c 0,4.969 4.219,9.016 9.438,9.016 h 23.016 c 5.203,0 9.422,-4.047 9.422,-9.016 v -23.094 h 7.859 v 23.094 c 0,4.969 4.219,9.016 9.422,9.016 h 23.031 c 5.203,0 9.438,-4.047 9.438,-9.016 v -23.094 h 7.844 v 23.094 c 0,4.969 4.219,9.016 9.438,9.016 h 23.016 c 5.203,0 9.422,-4.047 9.422,-9.016 v -27.578 c 23.984,-6.969 64.031,-23.141 77.656,-55.828 9.891,-23.766 6.016,-55.047 -8.797,-115.344 C 381.88,33.689 338.755,0.001 257.177,0.001 c -81.578,0 -124.688,33.688 -139.516,94.016 -14.828,60.297 -18.719,91.578 -8.797,115.344 13.61,32.687 53.657,48.844 77.657,55.828 z M 314.114,108.83 c 21.688,-3.547 42.844,13.547 47.25,38.156 4.391,24.625 -9.625,47.453 -31.297,51.016 -21.719,3.531 -42.891,-13.531 -47.281,-38.172 -4.39,-24.61 9.641,-47.438 31.328,-51 z m -26.39,112.484 h -30.547 -30.516 l 30.516,-36.5 z M 153.005,146.986 c 4.438,-24.609 25.563,-41.703 47.25,-38.156 21.703,3.563 35.75,26.391 31.328,51 -4.391,24.641 -25.531,41.703 -47.234,38.172 -21.719,-3.563 -35.735,-26.391 -31.344,-51.016 z"
   id="path1"
   style="fill:#d40000;fill-opacity:1" />
	<path
   class="st0"
   d="m 450.208,397.83 c -16.391,-7.25 -35.656,-1.156 -44.484,13.516 -6.484,8.063 -16.563,4.906 -21.188,2.875 -3.438,-1.516 -39.281,-17.36 -81.844,-36.157 36.578,-16.75 66.781,-30.578 72.828,-33.344 16.703,-7.641 28.703,-11.813 39.719,-2.781 9.609,12.813 27.703,17.609 43.078,10.578 17.266,-7.891 24.563,-27.688 16.297,-44.203 -4.984,-10 -14.547,-16.469 -25.125,-18.297 5.156,-9.031 5.891,-20.188 0.875,-30.203 -8.25,-16.516 -28.938,-23.484 -46.203,-15.594 -14.953,6.844 -22.406,22.594 -18.781,37.422 0.859,11.156 -15.75,20.094 -26.766,25.141 -7.688,3.516 -55.188,25.672 -105.969,49.172 -47.75,-21.094 -91.875,-40.578 -99.359,-43.875 -16.828,-7.438 -27.844,-13.609 -27.609,-27.469 4.188,-15.25 -3.484,-31.641 -18.969,-38.5 -17.359,-7.656 -37.953,-0.406 -45.984,16.219 -4.859,10.063 -3.969,21.219 1.328,30.203 -10.563,1.953 -20.031,8.531 -24.875,18.594 -8.016,16.641 -0.438,36.328 16.938,44 15.047,6.641 32.484,2.078 42.094,-10.047 8.453,-7.766 26.234,-1.234 37.297,3.688 5.781,2.547 34.063,14.813 69.359,30.172 -42.5,19.531 -78.5,35.86 -84.156,37.657 -3.359,1.078 -6.375,1.203 -9.031,0.813 -0.203,-0.453 -0.375,-0.938 -0.609,-1.375 -8.234,-16.516 -28.938,-23.5 -46.203,-15.594 -17.266,7.891 -24.563,27.704 -16.297,44.219 5,9.969 14.547,16.453 25.125,18.281 -5.141,9.031 -5.875,20.203 -0.891,30.203 8.281,16.516 28.953,23.5 46.219,15.609 16.313,-7.484 23.703,-25.531 17.531,-41.406 -2.344,-9.906 6.609,-15.344 11.203,-17.453 4.109,-1.859 54.563,-24.969 107.266,-49.094 57.578,25.172 115.453,50.719 121.984,54.61 3,1.781 5.031,3.922 6.406,6.125 -0.25,0.438 -0.5,0.859 -0.719,1.313 -8.016,16.625 -0.453,36.297 16.938,44 17.375,7.656 37.953,0.406 45.984,-16.219 4.844,-10.047 3.953,-21.219 -1.328,-30.188 10.563,-1.969 20.016,-8.563 24.875,-18.594 8.015,-16.642 0.437,-36.346 -16.954,-44.017 z"
   id="path2"
   style="fill:#d40000;fill-opacity:1" />
</g></g></g><style
     type="text/css"
     id="style1">
<![CDATA[
	.st0{fill:#000000;}
]]>
</style></svg>
